{
  "messages": [
    {
      "timestamp": 111760.699953041,
      "type": "note_on",
      "note": 64,
      "velocity": 1,
      "channel": 0
    },
    {
      "timestamp": 111760.776458625,
      "type": "note_on",
      "note": 65,
      "velocity": 8,
      "channel": 0
    },
    {
      "timestamp": 111760.78596775,
      "type": "note_off",
      "note": 62,
      "velocity": 1,
      "channel": 0
    },
    {
      "timestamp": 111760.869840791,
      "type": "note_on",
      "note": 67,
      "velocity": 10,
      "channel": 0
    },
    {
      "timestamp": 111760.877996166,
      "type": "note_off",
      "note": 64,
      "velocity": 1,
      "channel": 0
    },
    {
      "timestamp": 111760.945930333,
      "type": "note_off",
      "note": 65,
      "velocity": 1,
      "channel": 0
    },
    {
      "timestamp": 111761.029423375,
      "type": "note_off",
      "note": 67,
      "velocity": 3,
      "channel": 0
    },
    {
      "timestamp": 111761.247779958,
      "type": "note_on",
      "note": 60,
      "velocity": 10,
      "channel": 0
    },
    {
      "timestamp": 111761.248376291,
      "type": "note_on",
      "note": 68,
      "velocity": 25,
      "channel": 0
    },
    {
      "timestamp": 111761.367522375,
      "type": "note_off",
      "note": 68,
      "velocity": 1,
      "channel": 0
    },
    {
      "timestamp": 111761.409189166,
      "type": "note_off",
      "note": 60,
      "velocity": 37,
      "channel": 0
    },
    {
      "timestamp": 111761.520278708,
      "type": "note_on",
      "note": 60,
      "velocity": 9,
      "channel": 0
    },
    {
      "timestamp": 111761.600124333,
      "type": "note_off",
      "note": 60,
      "velocity": 1,
      "channel": 0
    },
    {
      "timestamp": 111761.669936333,
      "type": "note_on",
      "note": 68,
      "velocity": 22,
      "channel": 0
    },
    {
      "timestamp": 111761.807340791,
      "type": "note_off",
      "note": 68,
      "velocity": 6,
      "channel": 0
    },
    {
      "timestamp": 111762.092666583,
      "type": "note_on",
      "note": 67,
      "velocity": 9,
      "channel": 0
    },
    {
      "timestamp": 111762.33818875,
      "type": "note_on",
      "note": 65,
      "velocity": 11,
      "channel": 0
    },
    {
      "timestamp": 111762.429006375,
      "type": "note_off",
      "note": 67,
      "velocity": 1,
      "channel": 0
    },
    {
      "timestamp": 111762.542240625,
      "type": "note_on",
      "note": 64,
      "velocity": 3,
      "channel": 0
    },
    {
      "timestamp": 111762.60834175,
      "type": "note_off",
      "note": 65,
      "velocity": 1,
      "channel": 0
    },
    {
      "timestamp": 111762.691423083,
      "type": "note_on",
      "note": 62,
      "velocity": 33,
      "channel": 0
    },
    {
      "timestamp": 111762.72434975,
      "type": "note_off",
      "note": 64,
      "velocity": 1,
      "channel": 0
    },
    {
      "timestamp": 111762.821400166,
      "type": "note_off",
      "note": 62,
      "velocity": 1,
      "channel": 0
    },
    {
      "timestamp": 111763.460319416,
      "type": "note_on",
      "note": 67,
      "velocity": 13,
      "channel": 0
    },
    {
      "timestamp": 111763.676547166,
      "type": "note_off",
      "note": 67,
      "velocity": 13,
      "channel": 0
    },
    {
      "timestamp": 111763.743620666,
      "type": "note_on",
      "note": 64,
      "velocity": 4,
      "channel": 0
    },
    {
      "timestamp": 111763.894130416,
      "type": "note_off",
      "note": 64,
      "velocity": 1,
      "channel": 0
    },
    {
      "timestamp": 111763.913853583,
      "type": "note_on",
      "note": 62,
      "velocity": 1,
      "channel": 0
    },
    {
      "timestamp": 111764.025860125,
      "type": "note_off",
      "note": 62,
      "velocity": 1,
      "channel": 0
    },
    {
      "timestamp": 111764.173253291,
      "type": "note_on",
      "note": 60,
      "velocity": 23,
      "channel": 0
    },
    {
      "timestamp": 111764.284095625,
      "type": "note_off",
      "note": 60,
      "velocity": 8,
      "channel": 0
    },
    {
      "timestamp": 111764.380987791,
      "type": "note_on",
      "note": 60,
      "velocity": 1,
      "channel": 0
    },
    {
      "timestamp": 111764.447264166,
      "type": "note_off",
      "note": 60,
      "velocity": 1,
      "channel": 0
    },
    {
      "timestamp": 111764.544597375,
      "type": "note_on",
      "note": 60,
      "velocity": 35,
      "channel": 0
    },
    {
      "timestamp": 111764.626564875,
      "type": "note_off",
      "note": 60,
      "velocity": 17,
      "channel": 0
    },
    {
      "timestamp": 111764.700477125,
      "type": "note_on",
      "note": 60,
      "velocity": 65,
      "channel": 0
    },
    {
      "timestamp": 111764.812468875,
      "type": "note_off",
      "note": 60,
      "velocity": 87,
      "channel": 0
    },
    {
      "timestamp": 111765.16359725,
      "type": "note_on",
      "note": 59,
      "velocity": 4,
      "channel": 0
    },
    {
      "timestamp": 111765.28756225,
      "type": "note_off",
      "note": 59,
      "velocity": 1,
      "channel": 0
    },
    {
      "timestamp": 111765.372469041,
      "type": "note_on",
      "note": 60,
      "velocity": 51,
      "channel": 0
    },
    {
      "timestamp": 111765.503506833,
      "type": "note_on",
      "note": 62,
      "velocity": 50,
      "channel": 0
    },
    {
      "timestamp": 111765.509321333,
      "type": "note_off",
      "note": 60,
      "velocity": 1,
      "channel": 0
    },
    {
      "timestamp": 111765.631704875,
      "type": "note_on",
      "note": 64,
      "velocity": 20,
      "channel": 0
    },
    {
      "timestamp": 111765.66963175,
      "type": "note_off",
      "note": 62,
      "velocity": 1,
      "channel": 0
    },
    {
      "timestamp": 111765.820640291,
      "type": "note_on",
      "note": 65,
      "velocity": 1,
      "channel": 0
    },
    {
      "timestamp": 111765.851813541,
      "type": "note_off",
      "note": 64,
      "velocity": 1,
      "channel": 0
    },
    {
      "timestamp": 111766.024493041,
      "type": "note_off",
      "note": 65,
      "velocity": 1,
      "channel": 0
    },
    {
      "timestamp": 111766.168709125,
      "type": "note_on",
      "note": 71,
      "velocity": 15,
      "channel": 0
    },
    {
      "timestamp": 111766.304667875,
      "type": "note_on",
      "note": 69,
      "velocity": 5,
      "channel": 0
    },
    {
      "timestamp": 111766.401180875,
      "type": "note_on",
      "note": 67,
      "velocity": 12,
      "channel": 0
    },
    {
      "timestamp": 111766.435287083,
      "type": "note_off",
      "note": 71,
      "velocity": 1,
      "channel": 0
    },
    {
      "timestamp": 111766.499167458,
      "type": "note_off",
      "note": 69,
      "velocity": 1,
      "channel": 0
    },
    {
      "timestamp": 111766.592429083,
      "type": "note_on",
      "note": 65,
      "velocity": 14,
      "channel": 0
    },
    {
      "timestamp": 111766.670256041,
      "type": "note_off",
      "note": 67,
      "velocity": 1,
      "channel": 0
    },
    {
      "timestamp": 111766.855653041,
      "type": "note_off",
      "note": 65,
      "velocity": 1,
      "channel": 0
    },
    {
      "timestamp": 111766.860677833,
      "type": "note_on",
      "note": 64,
      "velocity": 8,
      "channel": 0
    },
    {
      "timestamp": 111766.973076333,
      "type": "note_off",
      "note": 64,
      "velocity": 1,
      "channel": 0
    },
    {
      "timestamp": 111767.176400833,
      "type": "note_on",
      "note": 65,
      "velocity": 7,
      "channel": 0
    },
    {
      "timestamp": 111767.34122975,
      "type": "note_off",
      "note": 65,
      "velocity": 1,
      "channel": 0
    },
    {
      "timestamp": 111767.351307416,
      "type": "note_on",
      "note": 67,
      "velocity": 1,
      "channel": 0
    },
    {
      "timestamp": 111767.465554791,
      "type": "note_off",
      "note": 67,
      "velocity": 1,
      "channel": 0
    },
    {
      "timestamp": 111767.499207333,
      "type": "note_on",
      "note": 69,
      "velocity": 1,
      "channel": 0
    },
    {
      "timestamp": 111767.57216325,
      "type": "note_off",
      "note": 69,
      "velocity": 1,
      "channel": 0
    },
    {
      "timestamp": 111767.580371041,
      "type": "note_on",
      "note": 71,
      "velocity": 1,
      "channel": 0
    },
    {
      "timestamp": 111767.824276458,
      "type": "note_off",
      "note": 71,
      "velocity": 1,
      "channel": 0
    },
    {
      "timestamp": 111768.041405875,
      "type": "note_on",
      "note": 71,
      "velocity": 1,
      "channel": 0
    },
    {
      "timestamp": 111768.270753541,
      "type": "note_on",
      "note": 69,
      "velocity": 1,
      "channel": 0
    },
    {
      "timestamp": 111768.295859541,
      "type": "note_off",
      "note": 71,
      "velocity": 1,
      "channel": 0
    },
    {
      "timestamp": 111768.404860583,
      "type": "note_on",
      "note": 67,
      "velocity": 7,
      "channel": 0
    },
    {
      "timestamp": 111768.405684833,
      "type": "note_off",
      "note": 69,
      "velocity": 1,
      "channel": 0
    },
    {
      "timestamp": 111768.546093583,
      "type": "note_on",
      "note": 65,
      "velocity": 1,
      "channel": 0
    },
    {
      "timestamp": 111768.556588458,
      "type": "note_off",
      "note": 67,
      "velocity": 1,
      "channel": 0
    },
    {
      "timestamp": 111768.610633958,
      "type": "note_off",
      "note": 65,
      "velocity": 1,
      "channel": 0
    },
    {
      "timestamp": 111768.976709041,
      "type": "note_on",
      "note": 65,
      "velocity": 43,
      "channel": 0
    },
    {
      "timestamp": 111769.071690125,
      "type": "note_off",
      "note": 65,
      "velocity": 13,
      "channel": 0
    },
    {
      "timestamp": 111769.207774708,
      "type": "note_on",
      "note": 65,
      "velocity": 51,
      "channel": 0
    },
    {
      "timestamp": 111769.315500083,
      "type": "note_off",
      "note": 65,
      "velocity": 37,
      "channel": 0
    },
    {
      "timestamp": 111769.42562475,
      "type": "note_on",
      "note": 65,
      "velocity": 70,
      "channel": 0
    },
    {
      "timestamp": 111769.941592125,
      "type": "note_off",
      "note": 65,
      "velocity": 1,
      "channel": 0
    },
    {
      "timestamp": 111770.629831416,
      "type": "note_on",
      "note": 62,
      "velocity": 56,
      "channel": 0
    },
    {
      "timestamp": 111770.766815833,
      "type": "note_off",
      "note": 62,
      "velocity": 1,
      "channel": 0
    },
    {
      "timestamp": 111770.91460125,
      "type": "note_on",
      "note": 62,
      "velocity": 1,
      "channel": 0
    },
    {
      "timestamp": 111770.9796565,
      "type": "note_off",
      "note": 62,
      "velocity": 1,
      "channel": 0
    },
    {
      "timestamp": 111771.221554958,
      "type": "note_on",
      "note": 69,
      "velocity": 35,
      "channel": 0
    },
    {
      "timestamp": 111771.403753416,
      "type": "note_off",
      "note": 69,
      "velocity": 41,
      "channel": 0
    },
    {
      "timestamp": 111771.622680875,
      "type": "note_on",
      "note": 64,
      "velocity": 1,
      "channel": 0
    },
    {
      "timestamp": 111771.810791583,
      "type": "note_on",
      "note": 62,
      "velocity": 43,
      "channel": 0
    },
    {
      "timestamp": 111771.850671458,
      "type": "note_off",
      "note": 64,
      "velocity": 1,
      "channel": 0
    },
    {
      "timestamp": 111771.953498708,
      "type": "note_off",
      "note": 62,
      "velocity": 1,
      "channel": 0
    },
    {
      "timestamp": 111772.570364541,
      "type": "note_on",
      "note": 60,
      "velocity": 7,
      "channel": 0
    },
    {
      "timestamp": 111772.650774833,
      "type": "note_off",
      "note": 60,
      "velocity": 1,
      "channel": 0
    },
    {
      "timestamp": 111772.839556541,
      "type": "note_on",
      "note": 60,
      "velocity": 8,
      "channel": 0
    },
    {
      "timestamp": 111772.93075075,
      "type": "note_off",
      "note": 60,
      "velocity": 1,
      "channel": 0
    },
    {
      "timestamp": 111773.165594625,
      "type": "note_on",
      "note": 60,
      "velocity": 37,
      "channel": 0
    },
    {
      "timestamp": 111773.196538666,
      "type": "note_on",
      "note": 68,
      "velocity": 1,
      "channel": 0
    },
    {
      "timestamp": 111773.284730958,
      "type": "note_off",
      "note": 68,
      "velocity": 1,
      "channel": 0
    },
    {
      "timestamp": 111773.314658708,
      "type": "note_off",
      "note": 60,
      "velocity": 31,
      "channel": 0
    },
    {
      "timestamp": 111773.495490208,
      "type": "note_on",
      "note": 60,
      "velocity": 92,
      "channel": 0
    },
    {
      "timestamp": 111773.519755708,
      "type": "note_on",
      "note": 68,
      "velocity": 2,
      "channel": 0
    },
    {
      "timestamp": 111773.602765166,
      "type": "note_off",
      "note": 68,
      "velocity": 1,
      "channel": 0
    },
    {
      "timestamp": 111773.628166833,
      "type": "note_off",
      "note": 60,
      "velocity": 64,
      "channel": 0
    },
    {
      "timestamp": 111773.801670791,
      "type": "note_on",
      "note": 68,
      "velocity": 22,
      "channel": 0
    },
    {
      "timestamp": 111773.807587125,
      "type": "note_on",
      "note": 60,
      "velocity": 109,
      "channel": 0
    },
    {
      "timestamp": 111773.9174,
      "type": "note_off",
      "note": 68,
      "velocity": 1,
      "channel": 0
    },
    {
      "timestamp": 111773.937566375,
      "type": "note_off",
      "note": 60,
      "velocity": 40,
      "channel": 0
    },
    {
      "timestamp": 111774.53091325,
      "type": "note_off",
      "note": 48,
      "velocity": 31,
      "channel": 0
    },
    {
      "timestamp": 111776.820999333,
      "type": "note_on",
      "note": 67,
      "velocity": 51,
      "channel": 0
    },
    {
      "timestamp": 111777.015850208,
      "type": "note_on",
      "note": 65,
      "velocity": 11,
      "channel": 0
    },
    {
      "timestamp": 111777.059813708,
      "type": "note_off",
      "note": 67,
      "velocity": 1,
      "channel": 0
    },
    {
      "timestamp": 111777.157822041,
      "type": "note_on",
      "note": 64,
      "velocity": 1,
      "channel": 0
    },
    {
      "timestamp": 111777.207000541,
      "type": "note_off",
      "note": 65,
      "velocity": 1,
      "channel": 0
    },
    {
      "timestamp": 111777.28968275,
      "type": "note_on",
      "note": 62,
      "velocity": 16,
      "channel": 0
    },
    {
      "timestamp": 111777.323758791,
      "type": "note_off",
      "note": 64,
      "velocity": 1,
      "channel": 0
    },
    {
      "timestamp": 111777.442816,
      "type": "note_off",
      "note": 62,
      "velocity": 1,
      "channel": 0
    },
    {
      "timestamp": 111777.4558095,
      "type": "note_on",
      "note": 60,
      "velocity": 9,
      "channel": 0
    },
    {
      "timestamp": 111777.589750833,
      "type": "note_off",
      "note": 60,
      "velocity": 1,
      "channel": 0
    },
    {
      "timestamp": 111777.811782041,
      "type": "note_on",
      "note": 48,
      "velocity": 127,
      "channel": 0
    },
    {
      "timestamp": 111778.910031791,
      "type": "note_on",
      "note": 67,
      "velocity": 24,
      "channel": 0
    },
    {
      "timestamp": 111779.030999458,
      "type": "note_on",
      "note": 64,
      "velocity": 32,
      "channel": 0
    },
    {
      "timestamp": 111779.046107666,
      "type": "note_off",
      "note": 67,
      "velocity": 1,
      "channel": 0
    },
    {
      "timestamp": 111779.094909125,
      "type": "note_on",
      "note": 62,
      "velocity": 27,
      "channel": 0
    },
    {
      "timestamp": 111779.152703458,
      "type": "note_on",
      "note": 60,
      "velocity": 60,
      "channel": 0
    },
    {
      "timestamp": 111779.152711208,
      "type": "note_off",
      "note": 64,
      "velocity": 1,
      "channel": 0
    },
    {
      "timestamp": 111779.220593416,
      "type": "note_off",
      "note": 62,
      "velocity": 84,
      "channel": 0
    },
    {
      "timestamp": 111779.309866791,
      "type": "note_off",
      "note": 60,
      "velocity": 1,
      "channel": 0
    },
    {
      "timestamp": 111779.329882916,
      "type": "note_off",
      "note": 48,
      "velocity": 67,
      "channel": 0
    },
    {
      "timestamp": 111780.873091333,
      "type": "note_on",
      "note": 48,
      "velocity": 111,
      "channel": 0
    },
    {
      "timestamp": 111781.250882583,
      "type": "note_on",
      "note": 64,
      "velocity": 1,
      "channel": 0
    },
    {
      "timestamp": 111781.316087125,
      "type": "note_on",
      "note": 62,
      "velocity": 31,
      "channel": 0
    },
    {
      "timestamp": 111781.365017166,
      "type": "note_off",
      "note": 64,
      "velocity": 1,
      "channel": 0
    },
    {
      "timestamp": 111781.442692166,
      "type": "note_on",
      "note": 60,
      "velocity": 4,
      "channel": 0
    },
    {
      "timestamp": 111781.450959375,
      "type": "note_off",
      "note": 62,
      "velocity": 26,
      "channel": 0
    },
    {
      "timestamp": 111781.541021041,
      "type": "note_off",
      "note": 60,
      "velocity": 1,
      "channel": 0
    },
    {
      "timestamp": 111781.644015291,
      "type": "note_on",
      "note": 60,
      "velocity": 40,
      "channel": 0
    },
    {
      "timestamp": 111781.755627583,
      "type": "note_off",
      "note": 60,
      "velocity": 59,
      "channel": 0
    },
    {
      "timestamp": 111781.847023916,
      "type": "note_on",
      "note": 60,
      "velocity": 18,
      "channel": 0
    },
    {
      "timestamp": 111781.9517055,
      "type": "note_on",
      "note": 62,
      "velocity": 12,
      "channel": 0
    },
    {
      "timestamp": 111781.990034541,
      "type": "note_off",
      "note": 60,
      "velocity": 1,
      "channel": 0
    },
    {
      "timestamp": 111782.086745125,
      "type": "note_on",
      "note": 64,
      "velocity": 1,
      "channel": 0
    },
    {
      "timestamp": 111782.151728833,
      "type": "note_off",
      "note": 62,
      "velocity": 90,
      "channel": 0
    },
    {
      "timestamp": 111782.170548291,
      "type": "note_on",
      "note": 65,
      "velocity": 2,
      "channel": 0
    },
    {
      "timestamp": 111782.237834666,
      "type": "note_on",
      "note": 67,
      "velocity": 26,
      "channel": 0
    },
    {
      "timestamp": 111782.241958125,
      "type": "note_off",
      "note": 64,
      "velocity": 1,
      "channel": 0
    },
    {
      "timestamp": 111782.287892541,
      "type": "note_off",
      "note": 65,
      "velocity": 1,
      "channel": 0
    },
    {
      "timestamp": 111782.409043375,
      "type": "note_on",
      "note": 65,
      "velocity": 15,
      "channel": 0
    },
    {
      "timestamp": 111782.461025208,
      "type": "note_off",
      "note": 67,
      "velocity": 1,
      "channel": 0
    },
    {
      "timestamp": 111782.499125625,
      "type": "note_on",
      "note": 64,
      "velocity": 1,
      "channel": 0
    },
    {
      "timestamp": 111782.51041275,
      "type": "note_off",
      "note": 65,
      "velocity": 1,
      "channel": 0
    },
    {
      "timestamp": 111782.589938166,
      "type": "note_on",
      "note": 62,
      "velocity": 27,
      "channel": 0
    },
    {
      "timestamp": 111782.613946666,
      "type": "note_off",
      "note": 64,
      "velocity": 1,
      "channel": 0
    },
    {
      "timestamp": 111782.731980291,
      "type": "note_off",
      "note": 62,
      "velocity": 1,
      "channel": 0
    },
    {
      "timestamp": 111782.800035625,
      "type": "note_on",
      "note": 60,
      "velocity": 1,
      "channel": 0
    },
    {
      "timestamp": 111782.879808208,
      "type": "note_off",
      "note": 60,
      "velocity": 1,
      "channel": 0
    },
    {
      "timestamp": 111782.986426208,
      "type": "note_on",
      "note": 67,
      "velocity": 7,
      "channel": 0
    },
    {
      "timestamp": 111783.137669958,
      "type": "note_on",
      "note": 64,
      "velocity": 1,
      "channel": 0
    },
    {
      "timestamp": 111783.13875575,
      "type": "note_off",
      "note": 67,
      "velocity": 1,
      "channel": 0
    },
    {
      "timestamp": 111783.224681041,
      "type": "note_on",
      "note": 62,
      "velocity": 12,
      "channel": 0
    },
    {
      "timestamp": 111783.272821458,
      "type": "note_off",
      "note": 64,
      "velocity": 1,
      "channel": 0
    },
    {
      "timestamp": 111783.327952666,
      "type": "note_on",
      "note": 60,
      "velocity": 51,
      "channel": 0
    },
    {
      "timestamp": 111783.346637041,
      "type": "note_off",
      "note": 62,
      "velocity": 1,
      "channel": 0
    },
    {
      "timestamp": 111783.452871333,
      "type": "note_off",
      "note": 48,
      "velocity": 31,
      "channel": 0
    },
    {
      "timestamp": 111783.46598925,
      "type": "note_off",
      "note": 60,
      "velocity": 1,
      "channel": 0
    }
  ]
}